<svg xmlns="http://www.w3.org/2000/svg" xmlns:xlink="http://www.w3.org/1999/xlink" width="500" zoomAndPan="magnify" viewBox="0 0 375 374.999991" height="500" preserveAspectRatio="xMidYMid meet" version="1.0"><defs><g/><clipPath id="id1"><path d="M 30.128906 50.648438 L 350 50.648438 L 350 371 L 30.128906 371 Z M 30.128906 50.648438 " clip-rule="nonzero"/></clipPath><clipPath id="id2"><path d="M 41 55 L 360.878906 55 L 360.878906 374.648438 L 41 374.648438 Z M 41 55 " clip-rule="nonzero"/></clipPath></defs><g clip-path="url(#id1)"><path fill="#f0efec" d="M 189.824219 370.101562 C 101.769531 370.101562 30.128906 298.492188 30.128906 210.472656 C 30.128906 122.449219 101.769531 50.839844 189.824219 50.839844 C 277.882812 50.839844 349.523438 122.449219 349.523438 210.472656 C 349.523438 298.492188 277.882812 370.101562 189.824219 370.101562 Z M 189.824219 54.097656 C 103.5625 54.097656 33.386719 124.246094 33.386719 210.472656 C 33.386719 296.699219 103.5625 366.847656 189.824219 366.847656 C 276.085938 366.847656 346.265625 296.699219 346.265625 210.472656 C 346.265625 124.246094 276.085938 54.097656 189.824219 54.097656 Z M 189.824219 54.097656 " fill-opacity="1" fill-rule="nonzero"/></g><g clip-path="url(#id2)"><path fill="#f0efec" d="M 201.117188 374.433594 L 200.214844 374.429688 C 199.3125 374.425781 198.589844 373.691406 198.59375 372.792969 C 198.597656 371.894531 199.328125 371.171875 200.222656 371.171875 C 200.226562 371.171875 200.230469 371.171875 200.230469 371.171875 L 201.117188 371.175781 C 203.511719 371.175781 205.921875 371.121094 208.292969 371.015625 C 209.191406 370.949219 209.953125 371.667969 209.992188 372.566406 C 210.03125 373.464844 209.339844 374.230469 208.4375 374.269531 C 206.023438 374.375 203.558594 374.433594 201.117188 374.433594 Z M 227.789062 372.191406 C 227.007812 372.191406 226.316406 371.628906 226.183594 370.835938 C 226.03125 369.949219 226.628906 369.105469 227.515625 368.957031 C 238.101562 367.160156 248.527344 364.25 258.511719 360.3125 C 259.355469 359.988281 260.296875 360.394531 260.628906 361.230469 C 260.957031 362.066406 260.546875 363.015625 259.710938 363.34375 C 249.515625 367.363281 238.867188 370.332031 228.0625 372.167969 C 227.96875 372.183594 227.878906 372.191406 227.789062 372.191406 Z M 167.898438 370.9375 C 167.785156 370.9375 167.671875 370.925781 167.554688 370.902344 C 161.136719 369.53125 154.738281 367.738281 148.535156 365.578125 C 147.6875 365.28125 147.238281 364.351562 147.535156 363.503906 C 147.832031 362.65625 148.757812 362.207031 149.609375 362.503906 C 155.683594 364.617188 161.949219 366.375 168.238281 367.71875 C 169.117188 367.90625 169.679688 368.769531 169.492188 369.652344 C 169.328125 370.414062 168.652344 370.9375 167.898438 370.9375 Z M 141.4375 362.78125 C 141.230469 362.78125 141.023438 362.746094 140.820312 362.664062 C 130.6875 358.53125 120.9375 353.320312 111.84375 347.179688 C 111.097656 346.671875 110.902344 345.660156 111.402344 344.917969 C 111.90625 344.171875 112.917969 343.976562 113.664062 344.476562 C 122.578125 350.492188 132.125 355.597656 142.054688 359.644531 C 142.886719 359.984375 143.285156 360.933594 142.945312 361.769531 C 142.6875 362.402344 142.078125 362.78125 141.4375 362.78125 Z M 266.59375 360.28125 C 265.972656 360.28125 265.382812 359.929688 265.109375 359.328125 C 264.734375 358.511719 265.097656 357.546875 265.914062 357.171875 C 271.757812 354.511719 277.492188 351.453125 282.96875 348.089844 C 283.734375 347.613281 284.738281 347.855469 285.210938 348.621094 C 285.679688 349.390625 285.441406 350.390625 284.675781 350.863281 C 279.085938 354.296875 273.230469 357.417969 267.265625 360.136719 C 267.046875 360.238281 266.820312 360.28125 266.59375 360.28125 Z M 97.269531 335.550781 C 96.890625 335.550781 96.507812 335.417969 96.199219 335.148438 C 94.144531 333.359375 92.109375 331.488281 90.136719 329.585938 C 89.492188 328.960938 89.476562 327.929688 90.101562 327.28125 C 90.726562 326.636719 91.757812 326.621094 92.40625 327.242188 C 94.332031 329.109375 96.332031 330.941406 98.34375 332.695312 C 99.019531 333.285156 99.089844 334.316406 98.5 334.992188 C 98.175781 335.359375 97.722656 335.550781 97.269531 335.550781 Z M 309.625 331.320312 C 309.191406 331.320312 308.761719 331.152344 308.441406 330.8125 C 307.820312 330.160156 307.851562 329.128906 308.503906 328.511719 C 310.445312 326.679688 312.367188 324.765625 314.222656 322.832031 C 314.84375 322.179688 315.875 322.15625 316.527344 322.78125 C 317.175781 323.402344 317.199219 324.433594 316.578125 325.082031 C 314.683594 327.058594 312.722656 329.007812 310.742188 330.878906 C 310.425781 331.175781 310.023438 331.320312 309.625 331.320312 Z M 328.003906 310.664062 C 327.667969 310.664062 327.324219 310.558594 327.035156 310.34375 C 326.3125 309.804688 326.160156 308.785156 326.699219 308.0625 C 333.117188 299.441406 338.65625 290.140625 343.160156 280.414062 C 343.539062 279.59375 344.507812 279.238281 345.324219 279.621094 C 346.140625 279.996094 346.496094 280.964844 346.117188 281.78125 C 341.519531 291.710938 335.863281 301.207031 329.316406 310.007812 C 328.996094 310.4375 328.503906 310.664062 328.003906 310.664062 Z M 70.324219 305.179688 C 69.800781 305.179688 69.289062 304.929688 68.972656 304.464844 C 65.285156 299.042969 61.898438 293.335938 58.90625 287.507812 C 58.496094 286.707031 58.8125 285.726562 59.613281 285.316406 C 60.410156 284.898438 61.398438 285.21875 61.808594 286.023438 C 64.738281 291.734375 68.054688 297.320312 71.671875 302.632812 C 72.175781 303.378906 71.980469 304.390625 71.238281 304.898438 C 70.957031 305.089844 70.636719 305.179688 70.324219 305.179688 Z M 56.839844 281.070312 C 56.21875 281.070312 55.621094 280.710938 55.351562 280.105469 C 50.859375 270.105469 47.402344 259.613281 45.074219 248.914062 C 44.882812 248.035156 45.441406 247.167969 46.320312 246.976562 C 47.210938 246.78125 48.066406 247.34375 48.257812 248.222656 C 50.539062 258.703125 53.925781 268.980469 58.324219 278.777344 C 58.695312 279.597656 58.324219 280.5625 57.503906 280.925781 C 57.289062 281.023438 57.0625 281.070312 56.839844 281.070312 Z M 347.871094 275.238281 C 347.671875 275.238281 347.464844 275.203125 347.265625 275.121094 C 346.429688 274.789062 346.023438 273.839844 346.359375 273.003906 C 348.753906 267.03125 350.796875 260.851562 352.429688 254.644531 C 352.65625 253.777344 353.550781 253.253906 354.421875 253.484375 C 355.289062 253.710938 355.8125 254.601562 355.582031 255.472656 C 353.917969 261.8125 351.832031 268.121094 349.382812 274.21875 C 349.128906 274.851562 348.515625 275.238281 347.871094 275.238281 Z M 43.699219 230.898438 C 42.867188 230.898438 42.15625 230.261719 42.078125 229.414062 C 41.835938 226.703125 41.652344 223.941406 41.546875 221.210938 C 41.511719 220.3125 42.207031 219.554688 43.109375 219.519531 C 43.996094 219.46875 44.765625 220.183594 44.800781 221.082031 C 44.90625 223.761719 45.085938 226.464844 45.324219 229.125 C 45.40625 230.019531 44.746094 230.8125 43.847656 230.890625 C 43.800781 230.894531 43.75 230.898438 43.699219 230.898438 Z M 358.980469 224.566406 C 358.949219 224.566406 358.925781 224.566406 358.894531 224.566406 C 357.996094 224.519531 357.304688 223.753906 357.351562 222.855469 C 357.484375 220.199219 357.554688 217.488281 357.554688 214.800781 C 357.554688 213.902344 358.28125 213.171875 359.183594 213.171875 C 360.085938 213.171875 360.8125 213.902344 360.8125 214.800781 C 360.8125 217.546875 360.742188 220.3125 360.605469 223.019531 C 360.5625 223.890625 359.839844 224.566406 358.980469 224.566406 Z M 357.824219 195.632812 C 357.019531 195.632812 356.320312 195.035156 356.210938 194.21875 C 355.859375 191.554688 355.4375 188.878906 354.953125 186.257812 C 354.789062 185.375 355.378906 184.523438 356.261719 184.363281 C 357.164062 184.191406 357.996094 184.785156 358.160156 185.667969 C 358.652344 188.34375 359.082031 191.074219 359.441406 193.789062 C 359.558594 194.683594 358.933594 195.5 358.039062 195.617188 C 357.964844 195.628906 357.894531 195.632812 357.824219 195.632812 Z M 45.195312 190.332031 C 45.105469 190.332031 45.019531 190.324219 44.929688 190.308594 C 44.039062 190.160156 43.441406 189.324219 43.589844 188.433594 C 44.664062 181.957031 46.160156 175.492188 48.03125 169.210938 C 48.285156 168.351562 49.195312 167.859375 50.054688 168.117188 C 50.917969 168.371094 51.410156 169.277344 51.152344 170.140625 C 49.324219 176.289062 47.859375 182.625 46.804688 188.96875 C 46.667969 189.765625 45.980469 190.332031 45.195312 190.332031 Z M 351.828125 168.648438 C 351.136719 168.648438 350.496094 168.207031 350.277344 167.511719 C 347.035156 157.292969 342.710938 147.367188 337.425781 138.015625 C 336.984375 137.234375 337.261719 136.238281 338.042969 135.796875 C 338.828125 135.359375 339.820312 135.628906 340.265625 136.414062 C 345.660156 145.964844 350.074219 156.09375 353.382812 166.527344 C 353.652344 167.386719 353.179688 168.300781 352.320312 168.570312 C 352.15625 168.621094 351.992188 168.648438 351.828125 168.648438 Z M 52.113281 163.570312 C 51.929688 163.570312 51.746094 163.539062 51.566406 163.476562 C 50.71875 163.171875 50.277344 162.242188 50.578125 161.394531 C 54.238281 151.085938 58.992188 141.109375 64.710938 131.746094 C 65.183594 130.976562 66.1875 130.734375 66.953125 131.203125 C 67.71875 131.671875 67.964844 132.671875 67.492188 133.441406 C 61.890625 142.617188 57.234375 152.386719 53.648438 162.484375 C 53.410156 163.152344 52.78125 163.570312 52.113281 163.570312 Z M 334.664062 131.867188 C 334.125 131.867188 333.597656 131.601562 333.285156 131.113281 C 329.851562 125.695312 326.03125 120.429688 321.945312 115.46875 C 321.371094 114.773438 321.472656 113.75 322.167969 113.179688 C 322.863281 112.605469 323.890625 112.707031 324.460938 113.402344 C 328.632812 118.464844 332.527344 123.839844 336.039062 129.367188 C 336.519531 130.128906 336.292969 131.132812 335.535156 131.617188 C 335.265625 131.785156 334.964844 131.867188 334.664062 131.867188 Z M 77.292969 118.207031 C 76.9375 118.207031 76.578125 118.09375 76.28125 117.855469 C 75.574219 117.292969 75.457031 116.269531 76.019531 115.566406 C 77.71875 113.429688 79.496094 111.308594 81.300781 109.257812 C 81.898438 108.582031 82.933594 108.519531 83.601562 109.113281 C 84.277344 109.707031 84.339844 110.738281 83.746094 111.410156 C 81.976562 113.417969 80.234375 115.5 78.570312 117.59375 C 78.25 117.996094 77.773438 118.207031 77.292969 118.207031 Z M 300.070312 93.214844 C 299.710938 93.214844 299.351562 93.097656 299.050781 92.855469 C 296.972656 91.183594 294.8125 89.539062 292.636719 87.964844 C 291.90625 87.441406 291.742188 86.421875 292.269531 85.691406 C 292.792969 84.964844 293.808594 84.796875 294.542969 85.324219 C 296.765625 86.929688 298.96875 88.609375 301.089844 90.316406 C 301.792969 90.878906 301.902344 91.902344 301.339844 92.605469 C 301.019531 93.003906 300.546875 93.214844 300.070312 93.214844 Z M 106.417969 89.910156 C 105.921875 89.910156 105.433594 89.683594 105.113281 89.257812 C 104.574219 88.539062 104.71875 87.519531 105.4375 86.980469 C 110.695312 83.042969 116.242188 79.402344 121.925781 76.148438 C 122.710938 75.703125 123.703125 75.976562 124.148438 76.753906 C 124.59375 77.535156 124.324219 78.53125 123.542969 78.976562 C 117.972656 82.160156 112.539062 85.730469 107.394531 89.589844 C 107.101562 89.804688 106.757812 89.910156 106.417969 89.910156 Z M 277.074219 77.832031 C 276.808594 77.832031 276.539062 77.765625 276.289062 77.632812 C 266.871094 72.464844 256.894531 68.261719 246.628906 65.148438 C 245.765625 64.886719 245.28125 63.976562 245.542969 63.113281 C 245.800781 62.257812 246.707031 61.769531 247.574219 62.03125 C 258.054688 65.210938 268.246094 69.5 277.859375 74.777344 C 278.648438 75.210938 278.9375 76.199219 278.503906 76.988281 C 278.207031 77.527344 277.648438 77.832031 277.074219 77.832031 Z M 129.898438 75.335938 C 129.300781 75.335938 128.726562 75.011719 128.441406 74.441406 C 128.035156 73.640625 128.355469 72.660156 129.160156 72.253906 C 138.949219 67.308594 149.277344 63.367188 159.859375 60.546875 C 160.730469 60.3125 161.621094 60.832031 161.851562 61.699219 C 162.085938 62.570312 161.566406 63.464844 160.699219 63.695312 C 150.335938 66.457031 140.214844 70.316406 130.628906 75.160156 C 130.394531 75.28125 130.144531 75.335938 129.898438 75.335938 Z M 239.253906 63.058594 C 239.121094 63.058594 238.992188 63.042969 238.859375 63.011719 C 232.628906 61.46875 226.230469 60.300781 219.84375 59.539062 C 218.949219 59.433594 218.3125 58.621094 218.417969 57.730469 C 218.523438 56.835938 219.320312 56.191406 220.230469 56.304688 C 226.75 57.082031 233.28125 58.273438 239.640625 59.847656 C 240.515625 60.066406 241.046875 60.949219 240.832031 61.820312 C 240.648438 62.5625 239.984375 63.058594 239.253906 63.058594 Z M 179.425781 59.902344 C 178.625 59.902344 177.925781 59.308594 177.816406 58.492188 C 177.695312 57.601562 178.316406 56.78125 179.207031 56.660156 C 181.917969 56.289062 184.667969 55.984375 187.382812 55.75 C 188.277344 55.660156 189.070312 56.335938 189.144531 57.234375 C 189.222656 58.132812 188.558594 58.917969 187.660156 58.996094 C 185 59.222656 182.304688 59.523438 179.652344 59.886719 C 179.574219 59.898438 179.5 59.902344 179.425781 59.902344 Z M 179.425781 59.902344 " fill-opacity="1" fill-rule="nonzero"/></g><path fill="#f0efec" d="M 220.65625 367.082031 C 220.351562 367.082031 220.042969 367 219.769531 366.820312 C 219.015625 366.332031 218.800781 365.324219 219.289062 364.566406 C 252.066406 314.113281 256.257812 248.722656 230.234375 193.925781 C 229.847656 193.113281 230.195312 192.140625 231.007812 191.757812 C 231.824219 191.375 232.792969 191.71875 233.175781 192.53125 C 259.6875 248.34375 255.414062 314.945312 222.023438 366.34375 C 221.710938 366.824219 221.1875 367.082031 220.65625 367.082031 Z M 220.65625 367.082031 " fill-opacity="1" fill-rule="nonzero"/><path fill="#f0efec" d="M 245.355469 360.066406 C 245.136719 360.066406 244.914062 360.019531 244.699219 359.925781 C 243.875 359.558594 243.503906 358.597656 243.867188 357.777344 C 267.441406 304.5625 265.070312 242.464844 237.519531 191.660156 C 237.089844 190.867188 237.386719 189.878906 238.175781 189.453125 C 238.964844 189.023438 239.957031 189.316406 240.382812 190.105469 C 268.410156 241.792969 270.824219 304.964844 246.84375 359.097656 C 246.578125 359.703125 245.980469 360.066406 245.355469 360.066406 Z M 245.355469 360.066406 " fill-opacity="1" fill-rule="nonzero"/><path fill="#f0efec" d="M 230.453125 176.792969 C 230.085938 176.792969 229.722656 176.671875 229.425781 176.425781 C 170.414062 128.617188 86.886719 167.015625 86.046875 167.410156 C 85.375 167.71875 84.582031 167.546875 84.109375 166.984375 C 83.632812 166.417969 83.597656 165.605469 84.019531 165.003906 C 110.285156 127.515625 136.820312 109.785156 162.90625 112.261719 C 180.5625 113.945312 198.113281 125.273438 213.65625 145.019531 C 225.3125 159.824219 231.875 174.351562 231.9375 174.496094 C 232.246094 175.183594 232.042969 175.992188 231.445312 176.453125 C 231.152344 176.679688 230.800781 176.792969 230.453125 176.792969 Z M 156.902344 149.214844 C 179.332031 149.214844 203.90625 154.144531 225.8125 169.609375 C 217.808594 154.820312 195.023438 118.59375 162.585938 115.503906 C 138.851562 113.261719 114.445312 128.957031 90.019531 162.226562 C 100.875 157.992188 126.980469 149.214844 156.902344 149.214844 Z M 156.902344 149.214844 " fill-opacity="1" fill-rule="nonzero"/><path fill="#f0efec" d="M 319.679688 218.558594 C 319.121094 218.558594 318.585938 218.265625 318.285156 217.769531 C 292.535156 175.007812 232.222656 180.023438 231.609375 180.082031 C 230.863281 180.160156 230.1875 179.710938 229.929688 179.019531 C 229.675781 178.328125 229.921875 177.550781 230.523438 177.125 C 255.5 159.601562 276.214844 154.523438 292.078125 162.046875 C 317.914062 174.300781 321.179688 215.078125 321.304688 216.8125 C 321.359375 217.5625 320.890625 218.253906 320.175781 218.480469 C 320.007812 218.53125 319.84375 218.558594 319.679688 218.558594 Z M 237.898438 176.621094 C 253.753906 176.621094 294.40625 179.773438 317.136719 210.21875 C 315.0625 198.152344 308.703125 173.53125 290.671875 164.984375 C 276.917969 158.464844 258.902344 162.386719 237.074219 176.625 C 237.339844 176.621094 237.613281 176.621094 237.898438 176.621094 Z M 237.898438 176.621094 " fill-opacity="1" fill-rule="nonzero"/><path fill="#f0efec" d="M 143.335938 218.558594 C 143.171875 218.558594 143.007812 218.53125 142.839844 218.480469 C 142.125 218.253906 141.652344 217.5625 141.710938 216.8125 C 141.835938 215.082031 145.101562 174.300781 170.9375 162.046875 C 186.796875 154.523438 207.511719 159.597656 232.488281 177.125 C 233.09375 177.550781 233.339844 178.328125 233.082031 179.019531 C 232.828125 179.710938 232.152344 180.148438 231.40625 180.082031 C 230.796875 180.027344 170.480469 175.007812 144.730469 217.769531 C 144.429688 218.265625 143.894531 218.558594 143.335938 218.558594 Z M 186.492188 161.929688 C 181.363281 161.929688 176.640625 162.945312 172.335938 164.988281 C 154.292969 173.546875 147.945312 198.164062 145.878906 210.226562 C 168.601562 179.78125 209.257812 176.621094 225.117188 176.621094 C 225.402344 176.621094 225.675781 176.621094 225.941406 176.621094 C 210.941406 166.839844 197.742188 161.929688 186.492188 161.929688 Z M 186.492188 161.929688 " fill-opacity="1" fill-rule="nonzero"/><path fill="#f0efec" d="M 231.554688 177.910156 C 231.300781 177.910156 231.042969 177.851562 230.804688 177.726562 C 230.148438 177.386719 229.804688 176.648438 229.964844 175.929688 C 236.582031 146.148438 248.453125 128.441406 265.238281 123.300781 C 292.597656 114.941406 322.507812 142.835938 323.769531 144.03125 C 324.316406 144.546875 324.4375 145.375 324.058594 146.027344 C 323.683594 146.679688 322.90625 146.988281 322.183594 146.777344 C 274.289062 132.542969 233.171875 176.929688 232.761719 177.378906 C 232.445312 177.722656 232.003906 177.910156 231.554688 177.910156 Z M 275.832031 125.015625 C 272.597656 125.015625 269.359375 125.441406 266.1875 126.414062 C 251.632812 130.875 240.976562 145.914062 234.460938 171.140625 C 245.632812 160.792969 278.246094 134.691406 316.242188 141.972656 C 308.179688 135.710938 292.03125 125.015625 275.832031 125.015625 Z M 275.832031 125.015625 " fill-opacity="1" fill-rule="nonzero"/><path fill="#f0efec" d="M 229.402344 177.910156 C 229.347656 177.910156 229.292969 177.90625 229.234375 177.898438 C 228.5 177.824219 227.90625 177.265625 227.792969 176.535156 C 227.695312 175.933594 217.6875 116.265625 169.878906 101.863281 C 169.15625 101.648438 168.679688 100.960938 168.722656 100.207031 C 168.765625 99.457031 169.320312 98.832031 170.0625 98.699219 C 171.769531 98.394531 212.109375 91.5 230.363281 113.511719 C 241.566406 127.023438 241.757812 148.335938 230.921875 176.855469 C 230.683594 177.496094 230.074219 177.910156 229.402344 177.910156 Z M 177.480469 101.117188 C 213.222656 115.882812 226.140625 155.609375 229.792969 170.390625 C 238.214844 145.730469 237.570312 127.3125 227.859375 115.597656 C 215.132812 100.238281 189.699219 100.15625 177.480469 101.117188 Z M 177.480469 101.117188 " fill-opacity="1" fill-rule="nonzero"/><path fill="#f0efec" d="M 235.710938 162.828125 L 235.695312 162.828125 C 234.796875 162.828125 234.066406 162.101562 234.066406 161.199219 C 234.066406 160.296875 234.796875 159.570312 235.695312 159.570312 C 236.597656 159.570312 237.332031 160.296875 237.332031 161.199219 C 237.332031 162.101562 236.613281 162.828125 235.710938 162.828125 Z M 235.710938 162.828125 " fill-opacity="1" fill-rule="nonzero"/><path fill="#f0efec" d="M 234.390625 162.445312 L 234.375 162.445312 C 233.476562 162.445312 232.746094 161.714844 232.746094 160.816406 C 232.746094 159.914062 233.476562 159.1875 234.375 159.1875 C 235.277344 159.1875 236.011719 159.914062 236.011719 160.816406 C 236.011719 161.714844 235.292969 162.445312 234.390625 162.445312 Z M 234.390625 162.445312 " fill-opacity="1" fill-rule="nonzero"/><path fill="#f0efec" d="M 230.359375 194.921875 C 221.109375 194.921875 213.359375 188.007812 212.335938 178.839844 C 212.234375 177.945312 212.878906 177.140625 213.773438 177.039062 C 214.691406 176.949219 215.472656 177.585938 215.574219 178.476562 C 216.414062 185.996094 222.769531 191.667969 230.359375 191.667969 C 238.019531 191.667969 244.375 185.933594 245.144531 178.328125 C 245.238281 177.433594 246.039062 176.800781 246.933594 176.871094 C 247.828125 176.960938 248.480469 177.761719 248.390625 178.65625 C 247.445312 187.929688 239.695312 194.921875 230.359375 194.921875 Z M 230.359375 194.921875 " fill-opacity="1" fill-rule="nonzero"/><g fill="#f0efec" fill-opacity="1"><g transform="translate(43.341675, 127.712065)"><g><path d="M 4.804688 -6.710938 C 6.5 -9.21875 6.582031 -12.089844 4.902344 -14.683594 L 2.628906 -13.164062 C 3.863281 -11.339844 3.75 -9.789062 2.652344 -8.167969 C 0.824219 -5.464844 -1.871094 -5.613281 -4.378906 -7.308594 C -6.714844 -8.890625 -7.855469 -11.339844 -6.050781 -14.003906 C -4.941406 -15.648438 -3.417969 -16.515625 -1.4375 -15.863281 L -0.84375 -18.546875 C -3.886719 -19.121094 -6.507812 -17.980469 -8.199219 -15.484375 C -11.003906 -11.335938 -9.265625 -7.335938 -5.8125 -5 C -2.351562 -2.65625 1.996094 -2.5625 4.804688 -6.710938 Z M 4.804688 -6.710938 "/></g></g></g><g fill="#f0efec" fill-opacity="1"><g transform="translate(51.621839, 115.389653)"><g><path d="M 5.363281 -6.242188 C 8.542969 -10.144531 7.148438 -14.265625 3.933594 -16.882812 C 0.71875 -19.503906 -3.597656 -20.035156 -6.777344 -16.136719 C -9.953125 -12.238281 -8.5625 -8.113281 -5.347656 -5.496094 C -2.132812 -2.875 2.1875 -2.34375 5.363281 -6.242188 Z M 3.484375 -7.773438 C 1.425781 -5.246094 -1.292969 -5.917969 -3.523438 -7.734375 C -5.742188 -9.542969 -6.949219 -12.070312 -4.890625 -14.597656 C -2.828125 -17.128906 -0.109375 -16.457031 2.109375 -14.648438 C 4.339844 -12.832031 5.546875 -10.304688 3.484375 -7.773438 Z M 3.484375 -7.773438 "/></g></g></g><g fill="#f0efec" fill-opacity="1"><g transform="translate(61.64854, 103.078315)"><g><path d="M 5.914062 -5.757812 C 8.023438 -7.925781 8.613281 -10.738281 7.417969 -13.585938 L 4.910156 -12.496094 C 5.804688 -10.480469 5.421875 -8.976562 4.054688 -7.570312 C 1.777344 -5.234375 -0.851562 -5.855469 -3.019531 -7.964844 C -5.042969 -9.9375 -5.730469 -12.546875 -3.484375 -14.855469 C -2.101562 -16.273438 -0.445312 -16.859375 1.386719 -15.867188 L 2.441406 -18.402344 C -0.453125 -19.507812 -3.230469 -18.847656 -5.335938 -16.6875 C -8.832031 -13.101562 -7.824219 -8.855469 -4.835938 -5.945312 C -1.84375 -3.03125 2.417969 -2.171875 5.914062 -5.757812 Z M 5.914062 -5.757812 "/></g></g></g><g fill="#f0efec" fill-opacity="1"><g transform="translate(71.986113, 92.414244)"><g><path d="M 1.484375 -1.277344 L 3.558594 -3.0625 L 0.980469 -6.058594 L 1.234375 -10.5 L 9.460938 -8.144531 L 12.039062 -10.363281 L 1.476562 -13.125 L 2.023438 -21.824219 L -0.753906 -19.433594 L -1.191406 -8.582031 L -6.371094 -14.597656 L -8.445312 -12.8125 Z M 1.484375 -1.277344 "/></g></g></g><g fill="#f0efec" fill-opacity="1"><g transform="translate(83.786283, 82.314224)"><g><path d="M 4.027344 -2.941406 L 6.238281 -4.554688 L -1.296875 -14.871094 L 2.550781 -17.679688 L 1.105469 -19.652344 L -8.800781 -12.417969 L -7.359375 -10.445312 L -3.503906 -13.257812 Z M 4.027344 -2.941406 "/></g></g></g><g fill="#f0efec" fill-opacity="1"><g transform="translate(93.620424, 75.068981)"><g><path d="M 0.109375 -0.0664062 L 2.644531 -1.640625 L 1.945312 -5.097656 L 6.898438 -8.167969 L 9.675781 -6 L 12.183594 -7.554688 L -0.992188 -17.292969 L -2.730469 -16.214844 Z M 1.445312 -7.539062 L 0.265625 -13.347656 L 4.933594 -9.699219 Z M 1.445312 -7.539062 "/></g></g></g><g fill="#f0efec" fill-opacity="1"><g transform="translate(105.635417, 67.739651)"><g><path d="M 1.722656 -0.933594 L 4.128906 -2.234375 L -3.117188 -15.621094 L -5.523438 -14.316406 Z M 1.722656 -0.933594 "/></g></g></g><g fill="#f0efec" fill-opacity="1"><g transform="translate(111.164523, 64.667253)"><g><path d="M 1.769531 -0.84375 L 10.105469 -4.832031 L 8.992188 -7.164062 L 3.121094 -4.359375 L -2.328125 -15.757812 L -4.792969 -14.578125 Z M 1.769531 -0.84375 "/></g></g></g><g fill="#f0efec" fill-opacity="1"><g transform="translate(121.241738, 59.92156)"><g/></g></g><g fill="#f0efec" fill-opacity="1"><g transform="translate(125.736376, 57.854665)"><g><path d="M 7.847656 -2.558594 C 10.699219 -3.574219 12.464844 -5.835938 12.652344 -8.917969 L 9.917969 -9.046875 C 9.832031 -6.84375 8.824219 -5.664062 6.976562 -5.007812 C 3.902344 -3.914062 1.816406 -5.628906 0.804688 -8.480469 C -0.140625 -11.140625 0.390625 -13.789062 3.425781 -14.867188 C 5.292969 -15.53125 7.035156 -15.328125 8.246094 -13.628906 L 10.3125 -15.4375 C 8.203125 -17.707031 5.417969 -18.339844 2.574219 -17.332031 C -2.144531 -15.652344 -3.113281 -11.398438 -1.71875 -7.472656 C -0.320312 -3.535156 3.128906 -0.882812 7.847656 -2.558594 Z M 7.847656 -2.558594 "/></g></g></g><g fill="#f0efec" fill-opacity="1"><g transform="translate(139.708613, 52.83671)"><g><path d="M 8.023438 -1.847656 C 12.890625 -3.105469 14.214844 -7.253906 13.175781 -11.269531 C 12.140625 -15.28125 8.976562 -18.269531 4.105469 -17.011719 C -0.765625 -15.753906 -2.085938 -11.609375 -1.050781 -7.59375 C -0.0117188 -3.578125 3.152344 -0.589844 8.023438 -1.847656 Z M 7.414062 -4.195312 C 4.253906 -3.378906 2.464844 -5.53125 1.746094 -8.316406 C 1.03125 -11.089844 1.554688 -13.839844 4.714844 -14.65625 C 7.875 -15.472656 9.664062 -13.320312 10.382812 -10.546875 C 11.101562 -7.761719 10.574219 -5.011719 7.414062 -4.195312 Z M 7.414062 -4.195312 "/></g></g></g><g fill="#f0efec" fill-opacity="1"><g transform="translate(155.118841, 48.891819)"><g><path d="M 1.933594 -0.328125 L 4.628906 -0.789062 L 3.535156 -7.203125 L 4.46875 -7.363281 L 5.339844 -7.511719 L 10.128906 -1.726562 L 13.21875 -2.253906 L 7.90625 -8.222656 C 9.507812 -9.09375 10.492188 -10.738281 10.171875 -12.628906 C 9.691406 -15.441406 7.027344 -16.636719 4.226562 -16.160156 L -0.625 -15.332031 Z M 3.183594 -9.402344 L 2.503906 -13.386719 L 4.660156 -13.753906 C 6.199219 -14.015625 7.300781 -13.375 7.511719 -12.132812 C 7.707031 -11.007812 6.984375 -10.117188 5.558594 -9.808594 Z M 3.183594 -9.402344 "/></g></g></g><g fill="#f0efec" fill-opacity="1"><g transform="translate(168.047107, 46.624641)"><g><path d="M 9.703125 -16.128906 L 10.632812 -5.527344 L 3.328125 -15.570312 L 0.625 -15.332031 L 1.953125 -0.171875 L 4.570312 -0.398438 L 3.636719 -11.054688 L 10.921875 -0.957031 L 13.648438 -1.195312 L 12.320312 -16.355469 Z M 9.703125 -16.128906 "/></g></g></g><g fill="#f0efec" fill-opacity="1"><g transform="translate(183.120589, 45.32828)"><g><path d="M 1.960938 -0.0117188 L 12.085938 -0.078125 L 12.070312 -2.664062 L 4.679688 -2.617188 L 4.65625 -6.386719 L 11.539062 -6.429688 L 11.523438 -8.9375 L 4.640625 -8.894531 L 4.613281 -12.738281 L 12.003906 -12.789062 L 11.988281 -15.296875 L 1.863281 -15.230469 Z M 1.960938 -0.0117188 "/></g></g></g><g fill="#f0efec" fill-opacity="1"><g transform="translate(196.035306, 45.218756)"><g><path d="M 1.957031 0.136719 L 4.683594 0.324219 L 5.132812 -6.167969 L 6.078125 -6.101562 L 6.960938 -6.039062 L 10.25 0.707031 L 13.378906 0.921875 L 9.621094 -6.128906 C 11.382812 -6.597656 12.726562 -7.964844 12.859375 -9.875 C 13.058594 -12.722656 10.75 -14.515625 7.914062 -14.710938 L 3.003906 -15.046875 Z M 5.308594 -8.390625 L 5.585938 -12.417969 L 7.765625 -12.269531 C 9.324219 -12.160156 10.246094 -11.277344 10.160156 -10.019531 C 10.082031 -8.882812 9.171875 -8.1875 7.714844 -8.222656 Z M 5.308594 -8.390625 "/></g></g></g><g fill="#f0efec" fill-opacity="1"><g transform="translate(81.13005, 282.950551)"><g><path d="M 7.90625 -21.625 L 7.90625 -13.640625 L 21.109375 -13.640625 L 21.109375 -9.46875 L 7.90625 -9.46875 L 7.90625 0 L 2.515625 0 L 2.515625 -25.796875 L 21.53125 -25.796875 L 21.53125 -21.625 Z M 7.90625 -21.625 "/></g></g></g><g fill="#f0efec" fill-opacity="1"><g transform="translate(104.032283, 282.950551)"><g><path d="M 20.75 0 L 18.453125 -6.59375 L 8.625 -6.59375 L 6.328125 0 L 0.9375 0 L 10.34375 -25.796875 L 16.71875 -25.796875 L 26.09375 0 Z M 13.53125 -21.828125 L 13.421875 -21.421875 C 13.296875 -20.984375 13.144531 -20.484375 12.96875 -19.921875 C 12.800781 -19.359375 11.753906 -16.269531 9.828125 -10.65625 L 17.25 -10.65625 L 14.703125 -18.078125 L 13.921875 -20.5625 Z M 13.53125 -21.828125 "/></g></g></g><g fill="#f0efec" fill-opacity="1"><g transform="translate(131.108545, 282.950551)"><g><path d="M 13.234375 0.359375 C 9.679688 0.359375 6.960938 -0.503906 5.078125 -2.234375 C 3.191406 -3.960938 2.25 -6.441406 2.25 -9.671875 L 2.25 -25.796875 L 7.65625 -25.796875 L 7.65625 -10.09375 C 7.65625 -8.050781 8.140625 -6.5 9.109375 -5.4375 C 10.078125 -4.382812 11.503906 -3.859375 13.390625 -3.859375 C 15.316406 -3.859375 16.796875 -4.410156 17.828125 -5.515625 C 18.867188 -6.617188 19.390625 -8.203125 19.390625 -10.265625 L 19.390625 -25.796875 L 24.796875 -25.796875 L 24.796875 -9.9375 C 24.796875 -6.664062 23.785156 -4.128906 21.765625 -2.328125 C 19.742188 -0.535156 16.898438 0.359375 13.234375 0.359375 Z M 13.234375 0.359375 "/></g></g></g><g fill="#f0efec" fill-opacity="1"><g transform="translate(158.184807, 282.950551)"><g><path d="M 14.765625 -3.859375 C 16.160156 -3.859375 17.515625 -4.0625 18.828125 -4.46875 C 20.148438 -4.882812 21.175781 -5.410156 21.90625 -6.046875 L 21.90625 -9.609375 L 15.59375 -9.609375 L 15.59375 -13.609375 L 26.84375 -13.609375 L 26.84375 -4.125 C 25.476562 -2.71875 23.695312 -1.617188 21.5 -0.828125 C 19.3125 -0.0351562 17.015625 0.359375 14.609375 0.359375 C 10.410156 0.359375 7.179688 -0.800781 4.921875 -3.125 C 2.660156 -5.445312 1.53125 -8.742188 1.53125 -13.015625 C 1.53125 -17.265625 2.664062 -20.519531 4.9375 -22.78125 C 7.207031 -25.050781 10.472656 -26.1875 14.734375 -26.1875 C 20.796875 -26.1875 24.648438 -23.945312 26.296875 -19.46875 L 21.3125 -17.96875 C 20.78125 -19.269531 19.9375 -20.253906 18.78125 -20.921875 C 17.632812 -21.597656 16.285156 -21.9375 14.734375 -21.9375 C 12.203125 -21.9375 10.273438 -21.164062 8.953125 -19.625 C 7.628906 -18.09375 6.96875 -15.890625 6.96875 -13.015625 C 6.96875 -10.097656 7.648438 -7.84375 9.015625 -6.25 C 10.378906 -4.65625 12.296875 -3.859375 14.765625 -3.859375 Z M 14.765625 -3.859375 "/></g></g></g><g fill="#f0efec" fill-opacity="1"><g transform="translate(187.348082, 282.950551)"><g><path d="M 2.515625 0 L 2.515625 -25.796875 L 22.796875 -25.796875 L 22.796875 -21.625 L 7.90625 -21.625 L 7.90625 -15.140625 L 21.6875 -15.140625 L 21.6875 -10.96875 L 7.90625 -10.96875 L 7.90625 -4.171875 L 23.546875 -4.171875 L 23.546875 0 Z M 2.515625 0 "/></g></g></g><g fill="#f0efec" fill-opacity="1"><g transform="translate(212.355637, 282.950551)"><g><path d="M 14.15625 -21.625 L 14.15625 0 L 8.75 0 L 8.75 -21.625 L 0.421875 -21.625 L 0.421875 -25.796875 L 22.5 -25.796875 L 22.5 -21.625 Z M 14.15625 -21.625 "/></g></g></g></svg>